<svg fill="#ff7f66" xmlns="http://www.w3.org/2000/svg" viewBox="0 0 100 100">
  <path d="M38.71.02c-.15.02-.75.09-1.33.16-2.4.27-3.52.56-6 1.53-3.89 1.52-6.87 3.84-8.82 6.86-.88 1.37-1.42 2.64-1.91 4.56-.53 2.05-.53 3.21-.01 6.51l.25 1.6.9 1.29c1.39 1.98 3.91 5.72 11.2 16.62 3.69 5.52 7.4 11.04 8.25 12.29 1.49 2.2 1.52 2.26 1.32 2.29-.12.01-.87.12-1.66.26-3.5.58-5.56 1.22-7.61 2.35-3.5 1.95-6.9 4.63-8.34 6.55-.88 1.19-2.08 3.32-2.52 4.51-.11.28-.34 1.15-.53 1.95s-.57 2.2-.85 3.13-.63 2.19-.79 2.81c-.4 1.59-.62 2.25-1.13 3.27-.49.98-1.26 2.18-1.62 2.51-.12.12-.41.31-.65.44-.51.27-.65.48-.53.8.1.29.37.36.83.23.48-.12 1.05-.52 1.7-1.2 1.51-1.57 2.37-3.65 2.91-7.1.05-.33.12-.6.15-.6.02.01.33.47.66 1.04 2.11 3.51 2.96 4.6 5.41 6.81 2.63 2.39 3.46 3.66 3.36 5.11-.09 1.12-.62 1.81-3.09 3.99-1.99 1.76-2.97 3.21-2.98 4.38 0 .93.83 2.18 2.08 3.12 1.04.79 2.01 1.23 3.49 1.61 1.44.37 1.7.39 1.93.19.09-.08.66-1.15 1.28-2.37 1.5-2.96 1.83-3.46 2.8-4.24 1.86-1.5 4.15-3.64 5.6-5.24 1.66-1.83 2.49-3.15 2.65-4.24.07-.51.06-.6-.09-.96-.76-1.86-3.5-4.33-7.01-6.34-.36-.2-.65-.39-.65-.41 0-.05 1.99 1 2.64 1.4 2.57 1.57 4.38 3.2 5.59 5.05l.39.59.86.17c1.35.27 2.51.37 3.31.27 1-.12 1.14-.18 1.13-.41 0-.1-.19-.98-.41-1.94-.23-.97-.43-2.02-.45-2.34-.07-1.02.2-1.78 1.37-3.81.34-.59.73-1.3.87-1.56.42-.83.8-2.5 1.05-4.66l.11-.86.01.62c.02 1.08-.27 3.11-.66 4.61-.16.61-.41 1.19-1.21 2.8-.55 1.12-1.05 2.19-1.11 2.4-.08.32-.07.44.12 1.15.42 1.6 1 3.41 1.26 3.94.59 1.27.92 2.74.92 4.13-.01.88-.02.99-.34 1.95-.56 1.74-.66 2.45-.43 3.21.23.76 1.12 1.5 2.38 1.94.76.27 2.12.31 2.81.09.56-.2 1.19-.62 1.44-.98.37-.55.44-.97.46-3.01.02-1.65.05-2 .23-2.93.4-2.07 1.16-4.63 1.73-5.8.44-.93 2.03-3.01 2.72-3.57.18-.14.83-.56 1.46-.93s1.3-.8 1.51-.95c.32-.25.37-.27.37-.13 0 .21-.47.59-1.95 1.58-1.03.68-1.37.95-1.72 1.37-.63.76-1.56 2.01-1.56 2.09 0 .04.16.26.36.48.23.28.74.68 1.47 1.16 1.26.83 1.94 1.51 2.79 2.72 1.07 1.53 1.86 2.54 2.35 3 .95.89 1.91 1.19 2.93.93 1.21-.31 2.07-.79 2.9-1.61.42-.41.64-.69.73-.95.13-.36.13-.37-.05-.74-.12-.25-.54-.73-1.28-1.47-1.3-1.3-1.86-2.1-2.85-4.06-1.33-2.63-2.08-4.93-2.16-6.64l-.05-.87.23-.25c.36-.4.69-.41 1.4-.05 1.37.69 2.57 2.18 4.08 5.01 1.83 3.46 2.58 4.43 3.93 5.09 1.6.79 2.96.74 3.9-.14.46-.43.6-.72.6-1.27 0-.96-.83-2.01-2.57-3.26-1.37-.98-1.54-1.21-1.92-2.7-.53-2.11-.71-4.37-.62-7.79.12-4.1.09-5.84-.12-7.02-.32-1.83-.91-3.37-1.86-4.79-.58-.87-2.22-2.52-3.32-3.33-1.54-1.15-5.19-3.3-6.42-3.79-.58-.23-.69-.25-1.52-.25-1.08.01-1.88.22-3.08.81-.99.49-1.84 1.13-3.14 2.36-1.27 1.21-1.58 1.38-2.47 1.38-.35-.01-.9-.04-1.22-.08-1.52-.19-4.76-.27-7.08-.16-1.27.05-2.32.08-2.33.06s.39-1.37.91-3.03c.51-1.65 1.75-5.61 2.73-8.81 5.55-17.96 7.57-24.27 7.94-24.79.2-.28.2-.32.2-1.38-.02-2.15-.83-5.23-1.88-7.12C53.3 3.73 48.99 1.02 43.06.2c-.77-.15-3.8-.25-4.35-.18zm13.01 13.09c.18.06.66.33 1.08.59.91.58 4 2.72 4 2.79 0 .08-8.45 27.48-10.91 35.34-.11.36-.21.63-.23.62C45.5 52.29 51.18 13 51.37 13c.03.01.18.06.35.11zm-1.13.34c-.63 5.22-3.72 27.21-4.99 35.52-.64 4.26-.68 4.47-.79 4.5-.1.04-.15-.21-.65-3.71-1.74-12.22-4.82-35.67-4.74-36.14.02-.14.15-.1 1.43.48 2.51 1.13 3.72 1.43 5.04 1.25 1.47-.2 2.25-.5 3.42-1.32 1.31-.92 1.33-.92 1.28-.58zm-11.66 2.09c.38 2.22 1.19 7.97 3.1 22 .59 4.29 1.22 8.92 1.41 10.29.38 2.7.66 4.99.66 5.45 0 .27-.02.3-.2.3-.18 0-.28-.17-1.16-1.97-.52-1.08-3.31-6.73-6.17-12.54-8.45-17.15-10.84-22.06-10.77-22.13.02-.02.55.19 1.19.47 1.9.83 2.49.99 3.85.99.98 0 2.61-.22 3.24-.44 1.19-.41 2.89-1.8 3.95-3.23.36-.48.59-.74.62-.68.02.04.15.72.28 1.49zm-13.06 2.89c.68 1.26 7.37 14.82 13.68 27.7 2.68 5.47 3.39 6.97 3.19 6.72-.49-.66-10.48-15.51-17.49-26.04l-3.57-5.37.5-.52c.64-.67.99-1.14 1.79-2.4.35-.56.73-1.13.83-1.28l.2-.27.14.19c.08.09.41.67.73 1.27zm37.99 35.93c.65.17 2.1.7 2.05.75-.02.02-.23-.04-.49-.13-1.4-.48-2.78-.69-3.59-.54-.51.1-.54.12-1.19.78-1.51 1.54-2.32 3.53-2.25 5.53.04 1.3.2 1.58 2.73 4.54 1.85 2.18 1.93 2.27 2.34 2.92.4.62.5.89.88 2.46.34 1.38.54 2.01.83 2.6.69 1.38 1.96 1.71 2.89.76.51-.53.67-1.08.8-2.69l.09-1.25.05.67c.06.79-.05 2.08-.22 2.57-.28.79-.69 1.29-1.29 1.55-.8.35-1.53.28-1.94-.2-.47-.53-.76-1.3-1.6-4.23-.24-.83-.48-1.6-.55-1.72-.21-.4-1.03-1.44-2.34-2.97-1.61-1.87-2.38-2.89-2.76-3.61-.28-.55-.29-.57-.29-1.5 0-1.08.16-1.77.66-2.93.8-1.86 1.91-3.21 2.88-3.48.49-.15 1.53-.09 2.31.12zm9.49 5.6c0 .12-.44.56-1.06 1.05-.77.62-1.59 1.18-1.59 1.09 0-.16.77-1.01 1.31-1.44.69-.55 1.34-.89 1.34-.7zm.12 1.8c.13.42-.67 1.41-1.15 1.41-.11 0-.14-.07-.14-.32 0-.44.25-.81.69-1.05.44-.22.54-.23.6-.04z"/>
  <path d="M65.4 46.71c-.64.13-1.08.31-1.28.53l-.21.22.72-.19c.58-.16.94-.2 1.76-.2.57 0 1.04-.02 1.04-.02 0-.02-.15-.09-.33-.19-.39-.2-1.15-.26-1.7-.15zm12.66 7.62c.76.95 1.6 2.39 1.85 3.18.16.51.2.47.15-.14-.06-.62-.17-.97-.52-1.66-.49-.98-1.34-1.9-1.75-1.9-.12 0-.07.11.27.52zm1.09.1c.5.65.83 1.2 1.21 2.04l.26.59-.03-.51c-.07-1.05-.94-2.4-1.69-2.61-.16-.06-.12.02.25.49zm-55.26 3.71c-1.22.59-2.72 2.48-2.47 3.13.04.09.16-.04.45-.48.71-1.09 1.45-1.93 2.36-2.66.17-.14.3-.25.27-.26-.01 0-.29.12-.61.27zm1.19.34c-.73.39-1.04.62-1.69 1.29-.97 1.01-1.78 2.43-1.62 2.86.05.13.14.03.55-.59.91-1.39 2.02-2.65 3.14-3.57.43-.37.33-.36-.38.01zm16.79 30.95c-1.19 1.21-2.61 2.5-4.12 3.75-.74.61-.84.72-.81.9.19.94.41 2.01.55 2.52.28 1.11.99 1.91 2.09 2.37.72.3 2.03.34 2.96.11 1.36-.34 3.14-1.42 3.43-2.07.15-.34.15-.35 0-.92-.2-.78-.58-1.76-1.51-3.96-1-2.36-1.32-3.17-1.38-3.57l-.05-.31-1.16 1.18z"/>
</svg>